<mxfile host="app.diagrams.net" agent="Mozilla/5.0 (Windows NT 10.0; Win64; x64) AppleWebKit/537.36 (KHTML, like Gecko) Chrome/131.0.0.0 Safari/537.36" version="26.0.5">
  <diagram name="Page-1" id="hd4K_-JfaXecoMEVGY_b">
    <mxGraphModel dx="1909" dy="1013" grid="1" gridSize="10" guides="1" tooltips="1" connect="1" arrows="1" fold="1" page="1" pageScale="1" pageWidth="827" pageHeight="1169" math="0" shadow="0">
      <root>
        <mxCell id="0" />
        <mxCell id="1" parent="0" />
        <mxCell id="OLJDqBpR-RK0W_lEo3u7-1" value="" style="rounded=1;whiteSpace=wrap;html=1;strokeWidth=3;" vertex="1" parent="1">
          <mxGeometry x="310" y="780" width="120" height="80" as="geometry" />
        </mxCell>
        <mxCell id="OLJDqBpR-RK0W_lEo3u7-2" value="" style="rounded=1;whiteSpace=wrap;html=1;strokeWidth=3;" vertex="1" parent="1">
          <mxGeometry x="540" y="780" width="120" height="80" as="geometry" />
        </mxCell>
        <mxCell id="OLJDqBpR-RK0W_lEo3u7-3" value="" style="rounded=1;whiteSpace=wrap;html=1;strokeWidth=3;" vertex="1" parent="1">
          <mxGeometry x="750" y="780" width="120" height="80" as="geometry" />
        </mxCell>
        <mxCell id="OLJDqBpR-RK0W_lEo3u7-4" value="" style="rounded=1;whiteSpace=wrap;html=1;strokeWidth=3;" vertex="1" parent="1">
          <mxGeometry x="940" y="780" width="120" height="80" as="geometry" />
        </mxCell>
        <mxCell id="OLJDqBpR-RK0W_lEo3u7-5" style="edgeStyle=orthogonalEdgeStyle;rounded=0;orthogonalLoop=1;jettySize=auto;html=1;exitX=0.5;exitY=1;exitDx=0;exitDy=0;strokeWidth=3;" edge="1" parent="1" source="OLJDqBpR-RK0W_lEo3u7-4" target="OLJDqBpR-RK0W_lEo3u7-4">
          <mxGeometry relative="1" as="geometry" />
        </mxCell>
        <mxCell id="OLJDqBpR-RK0W_lEo3u7-6" value="&lt;font style=&quot;font-size: 17px;&quot;&gt;Turbo Decoding&lt;/font&gt;" style="rounded=1;whiteSpace=wrap;html=1;strokeWidth=3;" vertex="1" parent="1">
          <mxGeometry x="510" y="1100" width="130" height="80" as="geometry" />
        </mxCell>
        <mxCell id="OLJDqBpR-RK0W_lEo3u7-7" value="&lt;font style=&quot;font-size: 17px;&quot;&gt;Interleaving&lt;/font&gt;" style="rounded=1;whiteSpace=wrap;html=1;strokeWidth=3;" vertex="1" parent="1">
          <mxGeometry x="1160" y="940" width="120" height="80" as="geometry" />
        </mxCell>
        <mxCell id="OLJDqBpR-RK0W_lEo3u7-8" style="edgeStyle=orthogonalEdgeStyle;rounded=0;orthogonalLoop=1;jettySize=auto;html=1;exitX=0.75;exitY=0;exitDx=0;exitDy=0;entryX=1;entryY=0.25;entryDx=0;entryDy=0;strokeWidth=3;" edge="1" parent="1" source="OLJDqBpR-RK0W_lEo3u7-10" target="OLJDqBpR-RK0W_lEo3u7-16">
          <mxGeometry relative="1" as="geometry" />
        </mxCell>
        <mxCell id="OLJDqBpR-RK0W_lEo3u7-9" style="edgeStyle=orthogonalEdgeStyle;rounded=0;orthogonalLoop=1;jettySize=auto;html=1;entryX=0.5;entryY=0;entryDx=0;entryDy=0;strokeWidth=3;" edge="1" parent="1">
          <mxGeometry relative="1" as="geometry">
            <mxPoint x="569.0000000000002" y="1020" as="sourcePoint" />
            <mxPoint x="573.9999999999998" y="1100" as="targetPoint" />
            <Array as="points">
              <mxPoint x="574" y="1020" />
              <mxPoint x="574" y="1060" />
              <mxPoint x="575" y="1100" />
            </Array>
          </mxGeometry>
        </mxCell>
        <mxCell id="OLJDqBpR-RK0W_lEo3u7-10" value="" style="rounded=1;whiteSpace=wrap;html=1;strokeWidth=3;" vertex="1" parent="1">
          <mxGeometry x="510" y="940" width="130" height="80" as="geometry" />
        </mxCell>
        <mxCell id="OLJDqBpR-RK0W_lEo3u7-11" value="&lt;font style=&quot;font-size: 17px;&quot;&gt;Soft input, Soft output decoding&lt;/font&gt;" style="rounded=1;whiteSpace=wrap;html=1;strokeWidth=3;" vertex="1" parent="1">
          <mxGeometry x="740" y="1100" width="130" height="80" as="geometry" />
        </mxCell>
        <mxCell id="OLJDqBpR-RK0W_lEo3u7-12" value="&lt;font style=&quot;font-size: 20px;&quot;&gt;Start&lt;/font&gt;" style="text;html=1;align=center;verticalAlign=middle;whiteSpace=wrap;rounded=0;shadow=1;fontStyle=0;strokeWidth=3;" vertex="1" parent="1">
          <mxGeometry x="340" y="805" width="60" height="30" as="geometry" />
        </mxCell>
        <mxCell id="OLJDqBpR-RK0W_lEo3u7-13" value="&lt;font style=&quot;font-size: 17px;&quot;&gt;segmentation of data packets&lt;/font&gt;" style="text;html=1;align=center;verticalAlign=middle;whiteSpace=wrap;rounded=0;fontStyle=0;strokeWidth=3;" vertex="1" parent="1">
          <mxGeometry x="574" y="795" width="60" height="45" as="geometry" />
        </mxCell>
        <mxCell id="OLJDqBpR-RK0W_lEo3u7-14" value="&lt;font style=&quot;font-size: 17px;&quot;&gt;Turbo Encoding&lt;/font&gt;" style="text;html=1;align=center;verticalAlign=middle;whiteSpace=wrap;rounded=0;fontStyle=0;strokeWidth=3;" vertex="1" parent="1">
          <mxGeometry x="780" y="802.5" width="60" height="30" as="geometry" />
        </mxCell>
        <mxCell id="OLJDqBpR-RK0W_lEo3u7-15" value="&lt;font style=&quot;font-size: 17px;&quot;&gt;Bit splitting&lt;/font&gt;" style="text;html=1;align=center;verticalAlign=middle;whiteSpace=wrap;rounded=0;fontStyle=0;strokeWidth=3;" vertex="1" parent="1">
          <mxGeometry x="970" y="805" width="60" height="30" as="geometry" />
        </mxCell>
        <mxCell id="OLJDqBpR-RK0W_lEo3u7-16" value="&lt;font style=&quot;font-size: 17px;&quot;&gt;&lt;span style=&quot;font-size: 17px;&quot;&gt;Modulation &amp;amp; Transmission&lt;/span&gt;&lt;/font&gt;" style="text;html=1;align=center;verticalAlign=middle;whiteSpace=wrap;rounded=0;fontStyle=0;fontSize=17;strokeWidth=3;" vertex="1" parent="1">
          <mxGeometry x="550" y="965" width="60" height="30" as="geometry" />
        </mxCell>
        <mxCell id="OLJDqBpR-RK0W_lEo3u7-17" value="&lt;font style=&quot;font-size: 17px;&quot;&gt;Constituent encoding 2&lt;/font&gt;" style="rounded=1;whiteSpace=wrap;html=1;strokeWidth=3;" vertex="1" parent="1">
          <mxGeometry x="950" y="940" width="120" height="80" as="geometry" />
        </mxCell>
        <mxCell id="OLJDqBpR-RK0W_lEo3u7-18" value="&lt;font style=&quot;font-size: 17px;&quot;&gt;Rate matching&lt;/font&gt;" style="rounded=1;whiteSpace=wrap;html=1;strokeWidth=3;" vertex="1" parent="1">
          <mxGeometry x="740" y="940" width="120" height="80" as="geometry" />
        </mxCell>
        <mxCell id="OLJDqBpR-RK0W_lEo3u7-19" value="&lt;font style=&quot;font-size: 17px;&quot;&gt;Constituent encoding 1&lt;/font&gt;" style="rounded=1;whiteSpace=wrap;html=1;strokeWidth=3;" vertex="1" parent="1">
          <mxGeometry x="1160" y="780" width="120" height="80" as="geometry" />
        </mxCell>
        <mxCell id="OLJDqBpR-RK0W_lEo3u7-20" value="&lt;font style=&quot;font-size: 17px;&quot;&gt;Deinterleaver&lt;/font&gt;" style="rounded=1;whiteSpace=wrap;html=1;strokeWidth=3;" vertex="1" parent="1">
          <mxGeometry x="960" y="1100" width="120" height="80" as="geometry" />
        </mxCell>
        <mxCell id="OLJDqBpR-RK0W_lEo3u7-21" value="&lt;div&gt;&lt;font style=&quot;font-size: 17px;&quot;&gt;&lt;br&gt;&lt;/font&gt;&lt;/div&gt;&lt;font style=&quot;font-size: 17px;&quot;&gt;error&lt;br&gt;detected via &lt;br&gt;CRC?&lt;br&gt;&lt;br&gt;&lt;/font&gt;" style="rhombus;whiteSpace=wrap;html=1;fontStyle=0;strokeWidth=3;" vertex="1" parent="1">
          <mxGeometry x="930" y="1250" width="180" height="100" as="geometry" />
        </mxCell>
        <mxCell id="OLJDqBpR-RK0W_lEo3u7-22" value="&lt;font style=&quot;font-size: 17px;&quot;&gt;ACK sent&lt;/font&gt;" style="rounded=1;whiteSpace=wrap;html=1;strokeWidth=3;" vertex="1" parent="1">
          <mxGeometry x="700" y="1257.5" width="120" height="85" as="geometry" />
        </mxCell>
        <mxCell id="OLJDqBpR-RK0W_lEo3u7-23" value="&lt;font style=&quot;font-size: 17px;&quot;&gt;NACK sent to transmitter&lt;/font&gt;" style="rounded=1;whiteSpace=wrap;html=1;strokeWidth=3;" vertex="1" parent="1">
          <mxGeometry x="1210" y="1260" width="140" height="80" as="geometry" />
        </mxCell>
        <mxCell id="OLJDqBpR-RK0W_lEo3u7-24" value="" style="endArrow=classic;html=1;rounded=0;exitX=0;exitY=0.5;exitDx=0;exitDy=0;entryX=1;entryY=0.5;entryDx=0;entryDy=0;strokeWidth=3;" edge="1" parent="1" source="OLJDqBpR-RK0W_lEo3u7-21" target="OLJDqBpR-RK0W_lEo3u7-22">
          <mxGeometry width="50" height="50" relative="1" as="geometry">
            <mxPoint x="680" y="1370" as="sourcePoint" />
            <mxPoint x="730" y="1320" as="targetPoint" />
          </mxGeometry>
        </mxCell>
        <mxCell id="OLJDqBpR-RK0W_lEo3u7-25" value="&lt;font style=&quot;font-size: 22px;&quot;&gt;No&lt;/font&gt;" style="text;html=1;align=center;verticalAlign=middle;whiteSpace=wrap;rounded=0;strokeWidth=3;" vertex="1" parent="1">
          <mxGeometry x="850" y="1267.5" width="60" height="30" as="geometry" />
        </mxCell>
        <mxCell id="OLJDqBpR-RK0W_lEo3u7-26" value="" style="endArrow=classic;html=1;rounded=0;exitX=1;exitY=0.5;exitDx=0;exitDy=0;entryX=0;entryY=0.5;entryDx=0;entryDy=0;strokeWidth=3;" edge="1" parent="1" source="OLJDqBpR-RK0W_lEo3u7-21" target="OLJDqBpR-RK0W_lEo3u7-23">
          <mxGeometry width="50" height="50" relative="1" as="geometry">
            <mxPoint x="1130" y="1450" as="sourcePoint" />
            <mxPoint x="1180" y="1400" as="targetPoint" />
          </mxGeometry>
        </mxCell>
        <mxCell id="OLJDqBpR-RK0W_lEo3u7-27" value="&lt;font style=&quot;font-size: 22px;&quot;&gt;Yes&lt;/font&gt;" style="text;html=1;align=center;verticalAlign=middle;whiteSpace=wrap;rounded=0;strokeWidth=3;" vertex="1" parent="1">
          <mxGeometry x="1120" y="1267.5" width="60" height="30" as="geometry" />
        </mxCell>
        <mxCell id="OLJDqBpR-RK0W_lEo3u7-28" value="" style="endArrow=classic;html=1;rounded=0;entryX=0.5;entryY=0;entryDx=0;entryDy=0;exitX=0.5;exitY=1;exitDx=0;exitDy=0;strokeWidth=3;" edge="1" parent="1" source="OLJDqBpR-RK0W_lEo3u7-20" target="OLJDqBpR-RK0W_lEo3u7-21">
          <mxGeometry width="50" height="50" relative="1" as="geometry">
            <mxPoint x="1270" y="1170" as="sourcePoint" />
            <mxPoint x="1320" y="1120" as="targetPoint" />
          </mxGeometry>
        </mxCell>
        <mxCell id="OLJDqBpR-RK0W_lEo3u7-29" value="" style="endArrow=classic;html=1;rounded=0;exitX=1;exitY=0.5;exitDx=0;exitDy=0;entryX=0;entryY=0.5;entryDx=0;entryDy=0;strokeWidth=3;" edge="1" parent="1" source="OLJDqBpR-RK0W_lEo3u7-11" target="OLJDqBpR-RK0W_lEo3u7-20">
          <mxGeometry width="50" height="50" relative="1" as="geometry">
            <mxPoint x="920" y="1410" as="sourcePoint" />
            <mxPoint x="970" y="1360" as="targetPoint" />
          </mxGeometry>
        </mxCell>
        <mxCell id="OLJDqBpR-RK0W_lEo3u7-30" value="" style="endArrow=classic;html=1;rounded=0;entryX=0;entryY=0.5;entryDx=0;entryDy=0;exitX=1;exitY=0.5;exitDx=0;exitDy=0;strokeWidth=3;" edge="1" parent="1" source="OLJDqBpR-RK0W_lEo3u7-6" target="OLJDqBpR-RK0W_lEo3u7-11">
          <mxGeometry width="50" height="50" relative="1" as="geometry">
            <mxPoint x="430" y="1310" as="sourcePoint" />
            <mxPoint x="480" y="1260" as="targetPoint" />
          </mxGeometry>
        </mxCell>
        <mxCell id="OLJDqBpR-RK0W_lEo3u7-31" value="" style="endArrow=classic;html=1;rounded=0;entryX=1;entryY=0.5;entryDx=0;entryDy=0;strokeWidth=3;" edge="1" parent="1" target="OLJDqBpR-RK0W_lEo3u7-10">
          <mxGeometry width="50" height="50" relative="1" as="geometry">
            <mxPoint x="740" y="980" as="sourcePoint" />
            <mxPoint x="540" y="1260" as="targetPoint" />
          </mxGeometry>
        </mxCell>
        <mxCell id="OLJDqBpR-RK0W_lEo3u7-32" value="" style="endArrow=classic;html=1;rounded=0;exitX=0;exitY=0.5;exitDx=0;exitDy=0;entryX=1;entryY=0.5;entryDx=0;entryDy=0;strokeWidth=3;" edge="1" parent="1" source="OLJDqBpR-RK0W_lEo3u7-17" target="OLJDqBpR-RK0W_lEo3u7-18">
          <mxGeometry width="50" height="50" relative="1" as="geometry">
            <mxPoint x="410" y="1330" as="sourcePoint" />
            <mxPoint x="460" y="1280" as="targetPoint" />
          </mxGeometry>
        </mxCell>
        <mxCell id="OLJDqBpR-RK0W_lEo3u7-33" value="" style="endArrow=classic;html=1;rounded=0;exitX=0;exitY=0.5;exitDx=0;exitDy=0;entryX=1;entryY=0.5;entryDx=0;entryDy=0;strokeWidth=3;" edge="1" parent="1" source="OLJDqBpR-RK0W_lEo3u7-7" target="OLJDqBpR-RK0W_lEo3u7-17">
          <mxGeometry width="50" height="50" relative="1" as="geometry">
            <mxPoint x="910" y="1380" as="sourcePoint" />
            <mxPoint x="960" y="1330" as="targetPoint" />
          </mxGeometry>
        </mxCell>
        <mxCell id="OLJDqBpR-RK0W_lEo3u7-34" value="" style="endArrow=classic;html=1;rounded=0;exitX=0.5;exitY=1;exitDx=0;exitDy=0;entryX=0.5;entryY=0;entryDx=0;entryDy=0;strokeWidth=3;" edge="1" parent="1" source="OLJDqBpR-RK0W_lEo3u7-19" target="OLJDqBpR-RK0W_lEo3u7-7">
          <mxGeometry width="50" height="50" relative="1" as="geometry">
            <mxPoint x="1250" y="1100" as="sourcePoint" />
            <mxPoint x="1300" y="1050" as="targetPoint" />
          </mxGeometry>
        </mxCell>
        <mxCell id="OLJDqBpR-RK0W_lEo3u7-35" value="" style="endArrow=classic;html=1;rounded=0;exitX=1;exitY=0.5;exitDx=0;exitDy=0;entryX=0;entryY=0.5;entryDx=0;entryDy=0;strokeWidth=3;" edge="1" parent="1" source="OLJDqBpR-RK0W_lEo3u7-4" target="OLJDqBpR-RK0W_lEo3u7-19">
          <mxGeometry width="50" height="50" relative="1" as="geometry">
            <mxPoint x="1080" y="740" as="sourcePoint" />
            <mxPoint x="1130" y="690" as="targetPoint" />
          </mxGeometry>
        </mxCell>
        <mxCell id="OLJDqBpR-RK0W_lEo3u7-36" value="" style="endArrow=classic;html=1;rounded=0;exitX=1;exitY=0.5;exitDx=0;exitDy=0;entryX=0;entryY=0.5;entryDx=0;entryDy=0;strokeWidth=3;" edge="1" parent="1" source="OLJDqBpR-RK0W_lEo3u7-3" target="OLJDqBpR-RK0W_lEo3u7-4">
          <mxGeometry width="50" height="50" relative="1" as="geometry">
            <mxPoint x="850" y="1370" as="sourcePoint" />
            <mxPoint x="900" y="1320" as="targetPoint" />
          </mxGeometry>
        </mxCell>
        <mxCell id="OLJDqBpR-RK0W_lEo3u7-37" value="" style="endArrow=classic;html=1;rounded=0;exitX=1;exitY=0.5;exitDx=0;exitDy=0;entryX=0;entryY=0.5;entryDx=0;entryDy=0;strokeWidth=3;" edge="1" parent="1" source="OLJDqBpR-RK0W_lEo3u7-2" target="OLJDqBpR-RK0W_lEo3u7-3">
          <mxGeometry width="50" height="50" relative="1" as="geometry">
            <mxPoint x="420" y="960" as="sourcePoint" />
            <mxPoint x="470" y="910" as="targetPoint" />
          </mxGeometry>
        </mxCell>
        <mxCell id="OLJDqBpR-RK0W_lEo3u7-38" value="" style="endArrow=classic;html=1;rounded=0;exitX=1;exitY=0.5;exitDx=0;exitDy=0;entryX=0;entryY=0.5;entryDx=0;entryDy=0;strokeWidth=3;" edge="1" parent="1" source="OLJDqBpR-RK0W_lEo3u7-1" target="OLJDqBpR-RK0W_lEo3u7-2">
          <mxGeometry width="50" height="50" relative="1" as="geometry">
            <mxPoint x="350" y="1030" as="sourcePoint" />
            <mxPoint x="400" y="980" as="targetPoint" />
          </mxGeometry>
        </mxCell>
        <mxCell id="OLJDqBpR-RK0W_lEo3u7-39" style="edgeStyle=orthogonalEdgeStyle;rounded=0;orthogonalLoop=1;jettySize=auto;html=1;exitX=0.5;exitY=1;exitDx=0;exitDy=0;strokeWidth=3;" edge="1" parent="1" source="OLJDqBpR-RK0W_lEo3u7-20" target="OLJDqBpR-RK0W_lEo3u7-20">
          <mxGeometry relative="1" as="geometry" />
        </mxCell>
      </root>
    </mxGraphModel>
  </diagram>
</mxfile>
